<?xml version="1.0" encoding="UTF-8" standalone="no"?>
<!-- Created with Inkscape (http://www.inkscape.org/) -->

<svg
   xmlns:dc="http://purl.org/dc/elements/1.1/"
   xmlns:cc="http://creativecommons.org/ns#"
   xmlns:rdf="http://www.w3.org/1999/02/22-rdf-syntax-ns#"
   xmlns:svg="http://www.w3.org/2000/svg"
   xmlns="http://www.w3.org/2000/svg"
   xmlns:sodipodi="http://sodipodi.sourceforge.net/DTD/sodipodi-0.dtd"
   xmlns:inkscape="http://www.inkscape.org/namespaces/inkscape"
   width="512"
   height="512"
   viewBox="0 0 479.99999 480"
   id="svg5389"
   version="1.1"
   inkscape:version="0.92.3 (2405546, 2018-03-11)"
   sodipodi:docname="logo.svg">
  <defs
     id="defs5391" />
  <sodipodi:namedview
     id="base"
     pagecolor="#ffffff"
     bordercolor="#666666"
     borderopacity="1.0"
     inkscape:pageopacity="0.0"
     inkscape:pageshadow="2"
     inkscape:zoom="0.70710678"
     inkscape:cx="-557.42238"
     inkscape:cy="647.42095"
     inkscape:document-units="px"
     inkscape:current-layer="layer1"
     showgrid="false"
     inkscape:snap-intersection-paths="true"
     inkscape:object-nodes="true"
     showguides="true"
     inkscape:guide-bbox="true"
     inkscape:window-width="2560"
     inkscape:window-height="1311"
     inkscape:window-x="0"
     inkscape:window-y="55"
     inkscape:window-maximized="1"
     units="px">
    <sodipodi:guide
       position="707,577.00001"
       orientation="0,1"
       id="guide6073"
       inkscape:locked="false" />
  </sodipodi:namedview>
  <metadata
     id="metadata5394">
    <rdf:RDF>
      <cc:Work
         rdf:about="">
        <dc:format>image/svg+xml</dc:format>
        <dc:type
           rdf:resource="http://purl.org/dc/dcmitype/StillImage" />
        <dc:title></dc:title>
      </cc:Work>
    </rdf:RDF>
  </metadata>
  <g
     inkscape:label="Layer 1"
     inkscape:groupmode="layer"
     id="layer1"
     transform="translate(0,-572.36218)">
    <path
       style="fill:#ffffff;fill-opacity:1;stroke:#ffffff;stroke-width:0.24711359;stroke-miterlimit:4;stroke-dasharray:none;stroke-opacity:1;image-rendering:auto"
       d="m 22.446218,905.94034 5.444085,-1.1318 L 5.8581555,798.96214 C 4.4381644,788.21806 5.3244051,780.53127 16.384354,778.78953 l 58.437105,0.81329 c 1.577531,29.91052 25.948811,53.87346 56.229041,54.60042 l -0.005,0.23167 c 15.1537,-5.61459 30.34777,-9.9191 45.57977,-13.02447 v -93.52659 c -14.53279,-2.2217 -29.07908,-5.2265 -43.63959,-9.1294 l -0.002,0.1423 c -0.18255,-0.01 -0.36514,-0.018 -0.54779,-0.027 -31.03714,-2e-4 -56.34,24.5105 -57.635921,55.23034 L 16.777934,773.35921 C 1.1762819,774.8816 -0.95288978,787.77953 0.51081136,800.11282 7.1061265,835.38831 15.134333,870.66444 22.446458,905.93984 Z m 435.107342,-0.1713 c 7.3121,-35.2755 15.34031,-70.55161 21.93561,-105.82712 1.4637,-12.33328 -0.6655,-25.23121 -16.26711,-26.7536 l -48.62037,0.62022 c -2.04392,-29.65429 -26.48849,-53.20709 -56.64652,-53.67619 v -0.1592 c -11.31748,2.389 -22.64793,4.487 -33.99179,6.2624 v 99.63705 c 11.28895,2.75639 22.5927,6.0037 33.91215,9.73757 v -0.14962 c 31.02845,-0.43978 56.03429,-25.31863 56.84198,-56.16181 l 48.89785,-0.68054 c 11.06001,1.74174 11.94621,9.4285 10.52621,20.17259 L 452.10945,904.63714 Z M 317.16792,824.27501 v -97.01866 c -6.48217,0.9389 -12.96952,1.7429 -19.45973,2.4568 v 90.6789 c 6.48132,1.1244 12.9677,2.41426 19.45973,3.88296 z m -128.18708,-5.12098 c 3.80733,-0.61409 7.61685,-1.1606 11.42873,-1.62896 v -86.68742 c -3.80828,-0.3617 -7.6184,-0.7934 -11.42873,-1.2597 z m 99.46081,-0.2558 v -88.21978 c -4.73388,0.4387 -9.47072,0.7916 -14.20869,1.1004 v 85.31184 c 4.73314,0.50641 9.46957,1.10799 14.20869,1.80754 z m -75.67671,-2.64254 c 4.20352,-0.3454 8.40963,-0.61149 12.61843,-0.78673 v -82.97571 c -4.20472,-0.1581 -8.41098,-0.3806 -12.61843,-0.6589 z m 49.11264,-0.25821 v -83.55983 c -5.26422,0.2127 -10.53004,0.3368 -15.79896,0.3765 v 82.44727 c 5.26279,0.12136 10.52839,0.36335 15.79896,0.73606 z"
       id="path5399"
       inkscape:export-xdpi="160"
       inkscape:export-ydpi="160"
       inkscape:connector-curvature="0" />
  </g>
</svg>
