<?xml version="1.0" encoding="UTF-8" standalone="no"?>
<!-- Created with Inkscape (http://www.inkscape.org/) -->
<svg xmlns:svg="http://www.w3.org/2000/svg" xmlns="http://www.w3.org/2000/svg" version="1.0" width="37" height="37" id="svg2453">
  <defs id="defs2455"/>
  <g transform="translate(5.0625,-652.875)" id="layer1">
    <path d="M 31.946929,670.88443 L 28.226929,670.88443 C 28.226929,670.88443 25.446929,676.28443 25.446929,676.28443 C 25.446929,676.28443 19.446929,664.28443 19.446929,664.28443 C 19.446929,664.28443 13.446929,676.28443 13.446929,676.28443 C 13.446929,676.28443 7.4469289,664.28443 7.4469289,664.28443 C 7.4469289,664.28443 1.4469289,676.28443 1.4469289,676.28443 C 1.4469289,676.28443 -1.3330711,670.88443 -1.3330711,670.88443 C -1.3330711,670.88443 -5.0530711,670.88443 -5.0530711,670.88443 C -5.0530711,670.88443 -5.0955011,671.842 -5.0530711,671.88443 C -5.0530711,671.88443 -1.7730711,671.88443 -1.7730711,671.88443 C -1.7730711,671.88443 1.4469289,678.48443 1.4469289,678.48443 C 1.4469289,678.48443 7.4469289,666.48443 7.4469289,666.48443 C 7.4469289,666.48443 13.446929,678.48443 13.446929,678.48443 C 13.446929,678.48443 19.446929,666.48443 19.446929,666.48443 C 19.446929,666.48443 25.446929,678.48443 25.446929,678.48443 C 25.446929,678.48443 28.666929,671.88443 28.666929,671.88443 C 28.666929,671.88443 31.946929,671.88443 31.946929,671.88443 L 31.946929,670.88443 z" id="path2463" style="fill:#000000;fill-opacity:1;fill-rule:evenodd;stroke:black;stroke-width:2;stroke-linecap:butt;stroke-linejoin:miter;stroke-miterlimit:4;stroke-dasharray:none;stroke-opacity:1"/>
  </g>
</svg>
