<?xml version="1.0" standalone="no"?>
<!DOCTYPE svg PUBLIC "-//W3C//DTD SVG 20010904//EN"
 "http://www.w3.org/TR/2001/REC-SVG-20010904/DTD/svg10.dtd">
<svg version="1.0" xmlns="http://www.w3.org/2000/svg"
 width="266.000000pt" height="266.000000pt" viewBox="0 0 266.000000 266.000000"
 preserveAspectRatio="xMidYMid meet">
<metadata>
Created by potrace 1.15, written by Peter Selinger 2001-2017
</metadata>
<g transform="translate(0.000000,266.000000) scale(0.100000,-0.100000)"
fill="#000000" stroke="none">
<path d="M345 2528 c-45 -24 -45 -25 -45 -390 l0 -348 -150 0 -150 0 0 -80 0
-80 150 0 150 0 0 -300 0 -300 -150 0 -150 0 0 -75 0 -75 150 0 150 0 0 -350
0 -351 27 -25 c28 -26 65 -39 85 -31 7 2 437 259 956 571 l944 566 174 0 174
0 0 75 0 75 -177 0 -178 0 -942 565 c-664 398 -950 565 -970 565 -15 0 -37 -6
-48 -12z m983 -725 l782 -470 -819 -492 c-451 -270 -822 -491 -825 -491 -3 0
-6 444 -6 986 l0 986 43 -25 c23 -14 394 -236 825 -494z"/>
<path d="M526 1774 c-24 -23 -21 -99 4 -124 19 -19 33 -20 230 -20 197 0 211
1 230 20 25 25 28 101 4 124 -23 24 -445 24 -468 0z"/>
<path d="M696 1184 c-12 -11 -16 -35 -16 -85 l0 -69 -69 0 c-84 0 -101 -12
-101 -75 0 -63 17 -75 101 -75 l69 0 0 -69 c0 -86 12 -101 80 -101 68 0 80 15
80 101 l0 69 69 0 c84 0 101 12 101 75 0 63 -17 75 -101 75 l-69 0 0 69 c0 50
-4 74 -16 85 -21 21 -107 21 -128 0z"/>
</g>
</svg>
